HIERARCHY
ROOT Hips
{
	OFFSET 0.000000 0.000000 0.000000
	CHANNELS 6 Xposition Yposition Zposition Zrotation Yrotation Xrotation 
	JOINT LeftUpLeg_virtual
	{
		OFFSET 0.000000 0.000000 0.000000
		CHANNELS 3 Zrotation Yrotation Xrotation
		JOINT LeftUpLeg
		{
			OFFSET 10.205400 -3.823500 0.155100
			CHANNELS 3 Zrotation Yrotation Xrotation
			JOINT LeftLeg
			{
				OFFSET 0.708757 -12.982077 0.567790
				CHANNELS 3 Zrotation Yrotation Xrotation
				JOINT LeftFoot
				{
					OFFSET -0.708756 -10.717838 -2.184338
					CHANNELS 3 Zrotation Yrotation Xrotation
					JOINT LeftToeBase
					{
						OFFSET 0.108149 -7.191104 7.560241
						CHANNELS 3 Zrotation Yrotation Xrotation
						End Site
						{
							OFFSET 0.000000 0.000000 0.000000
						}
					}
				}
			}
		}
	}
	JOINT RightUpLeg_virtual
	{
		OFFSET 0.000000 0.000000 0.000000
		CHANNELS 3 Zrotation Yrotation Xrotation
		JOINT RightUpLeg
		{
			OFFSET -10.205400 -3.823500 0.005500
			CHANNELS 3 Zrotation Yrotation Xrotation
			JOINT RightLeg
			{
				OFFSET -0.708756 -12.982134 0.610632
				CHANNELS 3 Zrotation Yrotation Xrotation
				JOINT RightFoot
				{
					OFFSET 0.708754 -10.717769 -1.945823
					CHANNELS 3 Zrotation Yrotation Xrotation
					JOINT RightToeBase
					{
						OFFSET -0.108140 -7.191069 7.372968
						CHANNELS 3 Zrotation Yrotation Xrotation
						End Site
						{
							OFFSET 0.000000 0.000000 0.000000
						}
					}
				}
			}
		}
	}
	JOINT Spine_virtual
	{
		OFFSET 0.000000 0.000000 0.000000
		CHANNELS 3 Zrotation Yrotation Xrotation
		JOINT Spine
		{
			OFFSET 0.000000 6.876099 0.125700
			CHANNELS 3 Zrotation Yrotation Xrotation
			JOINT Spine1
			{
				OFFSET 0.000000 8.022060 0.146608
				CHANNELS 3 Zrotation Yrotation Xrotation
				JOINT Spine2
				{
					OFFSET 0.000000 9.168068 0.167552
					CHANNELS 3 Zrotation Yrotation Xrotation
					JOINT Neck_virtual
					{
						OFFSET 0.000000 0.000000 0.000000
						CHANNELS 3 Zrotation Yrotation Xrotation
						JOINT Neck
						{
							OFFSET 0.000000 10.314075 0.188496
							CHANNELS 3 Zrotation Yrotation Xrotation
							JOINT Head
							{
								OFFSET 0.000000 7.643700 -2.377400
								CHANNELS 3 Zrotation Yrotation Xrotation
								End Site
								{
									OFFSET 0.000000 0.000000 0.000000
								}
							}
						}
					}
					JOINT LeftShoulder_virtual
					{
						OFFSET 0.000000 0.000000 0.000000
						CHANNELS 3 Zrotation Yrotation Xrotation
						JOINT LeftShoulder
						{
							OFFSET 4.392200 8.824978 0.174984
							CHANNELS 3 Zrotation Yrotation Xrotation
							JOINT LeftArm
							{
								OFFSET 8.771219 -2.981674 -0.026999
								CHANNELS 3 Zrotation Yrotation Xrotation
								JOINT LeftForeArm
								{
									OFFSET 8.512804 0.000000 -0.000000
									CHANNELS 3 Zrotation Yrotation Xrotation
									JOINT LeftHand
									{
										OFFSET 18.484802 0.000000 -0.000000
										CHANNELS 3 Zrotation Yrotation Xrotation
										End Site
										{
											OFFSET 0.000000 0.000000 0.000000
										}
									}
								}
							}
						}
					}
					JOINT RightShoulder_virtual
					{
						OFFSET 0.000000 0.000000 0.000000
						CHANNELS 3 Zrotation Yrotation Xrotation
						JOINT RightShoulder
						{
							OFFSET -4.392200 8.824993 0.141379
							CHANNELS 3 Zrotation Yrotation Xrotation
							JOINT RightArm
							{
								OFFSET -8.771282 -2.981682 -0.094208
								CHANNELS 3 Zrotation Yrotation Xrotation
								JOINT RightForeArm
								{
									OFFSET -8.494598 0.000000 0.000000
									CHANNELS 3 Zrotation Yrotation Xrotation
									JOINT RightHand
									{
										OFFSET -18.483803 0.000000 0.000001
										CHANNELS 3 Zrotation Yrotation Xrotation
										End Site
										{
											OFFSET 0.000000 0.000000 0.000000
										}
									}
								}
							}
						}
					}
				}
			}
		}
	}
}
MOTION
Frames: 8
Frame Time: 0.033333
-25.060244 36.400707 18.323788 179.912360 15.190361 -179.823253 -1.636128 -3.551762 7.103962 -5.418431 3.434382 -18.437303 10.894171 1.467281 22.779390 -5.196074 -3.093500 5.784877 0.000000 0.000000 0.000000 2.064056 -1.064808 5.183756 5.609017 4.033918 -11.008579 -7.976781 0.146765 16.542930 4.926810 4.336087 13.727836 0.000000 0.000000 0.000000 0.678126 0.876434 -5.725390 1.827441 -2.335033 -12.454235 -1.754618 -2.092375 8.767194 0.017843 0.047705 0.044137 -2.392033 0.351108 10.831387 -9.315665 0.258249 16.509122 0.000000 0.000000 0.000000 -0.147834 0.937529 7.960172 -10.987380 -0.300203 2.202983 -57.486957 28.021454 13.876548 1.846745 -44.163071 6.973664 0.000000 0.000000 0.000000 -4.796488 2.219303 7.326272 27.248937 3.005695 1.842279 53.414190 -26.650727 15.176139 -7.537165 36.457289 -3.200737 0.000000 0.000000 0.000000 
-25.097908 36.398788 18.320641 179.852582 15.191154 -179.738272 -1.443179 -3.698272 7.173166 -5.684938 2.865506 -18.280656 10.951068 1.173765 22.852044 -5.380744 -3.140015 5.598308 0.000000 0.000000 0.000000 2.061399 -1.127047 5.094706 5.672937 3.335483 -10.990672 -7.922204 -0.528925 16.793159 4.441594 3.959758 14.109417 0.000000 0.000000 0.000000 0.661592 0.903754 -5.853824 1.813087 -2.298888 -12.474877 -1.746426 -2.103734 8.752148 0.005290 0.039109 0.051506 -2.324266 0.301158 10.856219 -9.312872 0.307708 16.439002 0.000000 0.000000 0.000000 -0.102866 0.900218 7.976788 -11.001907 -0.461805 2.162246 -57.429330 27.621942 13.943640 1.745512 -44.482201 7.012846 0.000000 0.000000 0.000000 -4.723983 2.190758 7.301033 27.203855 3.065765 1.858879 53.389195 -26.589715 15.454025 -7.528221 36.449807 -3.179553 0.000000 0.000000 0.000000 
-25.144989 36.392868 18.318842 179.853689 14.853011 -179.795017 -1.407714 -3.937305 7.180516 -5.881981 2.825516 -18.284266 11.035082 1.113888 22.877971 -5.374541 -3.137675 5.688861 0.000000 0.000000 0.000000 2.072417 -1.430889 5.073773 5.510630 3.408011 -10.885398 -7.805659 -0.532693 16.783042 4.406095 3.967391 14.061029 0.000000 0.000000 0.000000 0.692103 0.805968 -5.844116 1.817668 -2.242827 -12.436951 -1.712736 -2.095491 8.688367 0.047476 0.036030 0.082035 -2.310079 0.433517 10.787879 -9.271748 0.257430 16.333745 0.000000 0.000000 0.000000 -0.136512 0.826913 7.931586 -11.034978 -0.649661 2.192258 -57.186578 26.773218 14.301639 1.723607 -45.029607 6.980087 0.000000 0.000000 0.000000 -4.769829 2.156552 7.278549 27.111176 3.153528 1.877821 53.399061 -26.570339 15.905887 -7.463995 36.344956 -3.128440 0.000000 0.000000 0.000000 
-25.197567 36.388348 18.318550 179.804498 14.690391 -179.783720 -1.402255 -4.043629 7.235616 -6.083399 2.775009 -18.406393 11.007967 1.089576 22.779883 -5.304158 -3.129067 5.725844 0.000000 0.000000 0.000000 1.979066 -1.535676 5.016665 5.415336 3.387444 -10.883809 -7.856230 -0.613676 16.758236 4.519921 4.067997 13.998298 0.000000 0.000000 0.000000 0.708021 0.738620 -5.896522 1.801399 -2.174536 -12.489651 -1.708163 -2.105987 8.633374 0.022266 0.050386 0.041998 -2.264006 0.335431 10.799277 -9.186211 0.409854 16.172194 0.000000 0.000000 0.000000 -0.090943 0.841909 7.992483 -11.136671 -0.886522 2.197860 -56.733874 25.651766 14.778028 1.481164 -45.740500 7.104832 0.000000 0.000000 0.000000 -4.711539 2.189295 7.275109 26.989069 3.348166 2.044844 53.405106 -26.498523 16.478198 -7.535364 36.323120 -3.235181 0.000000 0.000000 0.000000 
-25.261282 36.388351 18.322117 179.805604 14.392757 -179.790796 -1.405385 -4.169606 7.352643 -6.279739 2.704908 -18.597760 11.201846 1.218509 22.718563 -5.248971 -3.201105 5.790545 0.000000 0.000000 0.000000 2.002010 -1.733145 5.051268 5.201796 3.322691 -10.921435 -7.746391 -0.698569 16.695298 4.513525 4.253149 13.948775 0.000000 0.000000 0.000000 0.825216 0.597850 -5.885448 1.817159 -2.081378 -12.564768 -1.705029 -2.079150 8.577089 0.008637 0.059580 0.055228 -2.254098 0.301350 10.750240 -9.052289 0.249188 16.034310 0.000000 0.000000 0.000000 -0.087807 0.870766 7.959922 -11.193679 -1.110528 2.258184 -56.325985 24.429515 15.129880 1.385247 -46.721796 7.081468 0.000000 0.000000 0.000000 -4.722648 2.181133 7.270026 26.856370 3.592959 2.207422 53.375855 -26.436570 17.004413 -7.518478 36.317400 -3.269895 0.000000 0.000000 0.000000 
-25.325930 36.390354 18.335661 179.892703 14.017780 -179.753490 -1.241155 -4.304941 7.473391 -6.528156 2.611131 -18.816929 11.185766 1.105210 22.508916 -5.285999 -3.285284 5.908729 0.000000 0.000000 0.000000 2.086579 -1.890308 5.137718 5.062032 3.168187 -11.031562 -7.807701 -0.865273 16.719297 4.765902 4.244001 13.915301 0.000000 0.000000 0.000000 0.948516 0.451345 -5.889092 1.853140 -1.980215 -12.644506 -1.667615 -2.041047 8.553547 0.027690 0.108915 0.078469 -2.310869 0.354047 10.745704 -8.969822 0.186606 15.941882 0.000000 0.000000 0.000000 -0.140161 0.868234 7.831947 -11.322868 -1.252540 2.328213 -55.901772 23.233725 15.427924 1.260212 -47.957354 7.070120 0.000000 0.000000 0.000000 -4.745595 2.271832 7.198522 26.699788 3.735152 2.392783 53.403685 -26.519073 17.231218 -7.456006 36.375327 -3.243550 0.000000 0.000000 0.000000 
-25.400793 36.396240 18.365303 179.853798 13.722922 -179.785933 -1.284243 -4.384570 7.581224 -6.672367 2.431912 -18.987419 11.201001 1.143364 22.365775 -5.175354 -3.260035 5.972210 0.000000 0.000000 0.000000 2.072085 -2.009438 5.205890 4.832979 3.052645 -11.147895 -7.804787 -0.963908 16.775170 4.886916 4.299367 13.851612 0.000000 0.000000 0.000000 0.954307 0.515317 -5.829303 1.849952 -2.009349 -12.710677 -1.652037 -2.090833 8.485176 0.014248 0.039215 0.036447 -2.235263 0.555282 10.697179 -8.795785 0.150790 15.776523 0.000000 0.000000 0.000000 -0.136114 0.911805 7.903511 -11.473857 -1.417606 2.354540 -55.486660 22.331129 15.542710 1.025516 -49.310612 7.145575 0.000000 0.000000 0.000000 -4.758263 2.232600 7.203079 26.557642 3.932227 2.484687 53.304473 -26.479392 17.524302 -7.499785 36.516510 -3.266218 0.000000 0.000000 0.000000 
-25.478685 36.401268 18.402985 179.852145 13.435049 -179.818704 -1.275397 -4.386902 7.605892 -6.810622 2.214494 -19.102287 11.243596 1.172756 22.168216 -5.096544 -3.223226 6.141845 0.000000 0.000000 0.000000 2.110070 -2.043986 5.251221 4.625530 2.939043 -11.257960 -7.779715 -1.010832 16.925835 4.973321 4.336487 13.790201 0.000000 0.000000 0.000000 1.037656 0.344253 -5.770677 1.840735 -1.992213 -12.723377 -1.627176 -2.063710 8.474074 -0.025715 0.082115 0.025520 -2.242810 0.468623 10.673424 -8.674278 0.119921 15.588759 0.000000 0.000000 0.000000 -0.094930 0.945078 7.777664 -11.590152 -1.358988 2.407304 -55.172468 21.659056 15.631422 0.854303 -50.760296 7.173213 0.000000 0.000000 0.000000 -4.703321 2.338714 7.245433 26.439654 4.168957 2.598777 53.182790 -26.465397 17.705619 -7.519232 36.580400 -3.315225 0.000000 0.000000 0.000000 
